<svg width="39" height="34" viewBox="0 0 39 34" fill="none" xmlns="http://www.w3.org/2000/svg">
<path d="M16.2804 5.98235C16.2524 6.03445 16.249 6.0959 16.2704 6.1667C16.2851 6.21746 16.2657 6.24284 16.2123 6.24284C16.1522 6.24284 16.1054 6.26488 16.072 6.30897C16.0333 6.35839 15.9839 6.38845 15.9237 6.39914L15.7133 6.43921C14.0101 5.70583 12.5935 6.28092 10.768 6.87404C10.1335 7.07976 9.51899 7.51792 8.92453 8.18852C8.5879 8.56923 8.25394 9.14899 7.92264 9.9278C7.50853 10.9016 7.44641 11.8755 7.73629 12.8493C7.93467 13.5086 8.29134 14.0957 8.32541 14.797C8.41157 16.5944 6.95682 18.0251 5.16744 18.0591C3.40612 17.973 2.13172 16.8869 1.8572 15.1476C1.67552 13.9908 2.07294 13.0323 3.04945 12.2722C3.64458 11.8073 4.48816 11.6911 5.15542 11.4246C6.50998 10.8816 7.11713 9.95585 7.67618 8.69347C8.31138 7.26277 8.23524 6.04447 7.61407 4.5777C7.33354 3.91779 7.31884 3.16771 7.56998 2.32746C8.14039 0.978243 9.15631 0.310983 10.6177 0.325677C11.7492 0.336364 12.6295 0.786548 13.2587 1.67623C13.7236 2.33146 13.9039 3.3614 14.2426 4.00662C14.6994 4.88027 15.3787 5.53885 16.2804 5.98235Z" fill="#2FFAEC"/>
<path d="M34.2427 3.11082C35.3862 3.81615 35.9112 4.77863 35.8177 5.99827C35.7435 6.9721 35.2265 7.81369 34.3369 8.20844C33.9241 8.39279 33.2989 8.58515 32.8641 8.83562C31.4314 9.66519 30.8342 10.8013 30.2291 12.2861C29.7342 13.4283 29.666 14.5624 30.0187 15.7467C30.0815 15.9591 30.1429 16.1708 30.2031 16.3819C30.4375 17.2034 30.3052 17.9588 29.7983 18.6501C28.7443 20.0788 26.7445 20.1951 25.4922 18.9587C24.3039 17.7865 24.3119 15.939 25.6104 14.8089C25.8308 14.6179 26.3077 14.3741 27.0411 14.0775C28.0457 13.6728 28.8378 13.0148 29.4176 12.1038C30.161 10.9376 30.7301 9.62712 30.6479 8.23449C30.5938 7.31074 30.0828 6.08042 30.2211 5.14265C30.3627 4.19687 30.9097 3.48285 31.8622 3.00061C32.7211 2.72008 33.5146 2.75682 34.2427 3.11082Z" fill="#4FFFAA"/>
<path d="M1.58544 8.12056C2.46083 8.75891 3.66576 8.59719 4.27672 7.75936C4.88768 6.92152 4.67332 5.72484 3.79793 5.08649C2.92254 4.44815 1.71761 4.60986 1.10665 5.4477C0.495689 6.28554 0.710052 7.48222 1.58544 8.12056Z" fill="#2FFAEC"/>
<path d="M16.2809 5.9823C17.4926 6.74374 18.8171 6.95748 20.2544 6.62351C20.6365 6.53401 21.0172 6.44117 21.3966 6.34499C21.8468 6.22877 22.2308 6.18802 22.5488 6.22276C23.5052 6.32562 24.2593 6.72303 24.811 7.41501C25.9171 8.79962 25.7969 10.9016 24.3462 11.9456C22.8433 13.0256 20.8155 12.725 19.7375 11.2322C19.5865 11.0238 19.4289 10.6999 19.2646 10.2604C19.1363 9.9184 19.0007 9.58109 18.8578 9.24846C18.4557 8.32005 17.8385 7.60603 17.0063 7.10642C16.6951 6.9194 16.2642 6.69698 15.7139 6.43916L15.9243 6.39909C15.9844 6.3884 16.0338 6.35834 16.0725 6.30892C16.1059 6.26483 16.1527 6.24279 16.2128 6.24279C16.2662 6.24279 16.2856 6.21741 16.2709 6.16665C16.2496 6.09585 16.2529 6.0344 16.2809 5.9823Z" fill="#3AFED2"/>
<path d="M13.6536 25.4109L13.5975 25.7695C13.5881 25.839 13.5487 25.8717 13.4793 25.8677C13.1894 25.8544 12.985 25.9031 12.8661 26.014C11.9537 25.8951 11.0567 25.9866 10.175 26.2885C9.58859 26.4902 9.16914 26.5951 8.91666 26.6031C5.93904 26.7073 4.18173 22.9502 6.56823 20.9524C6.977 20.6732 7.26287 20.5123 7.42585 20.4695C8.53995 20.179 9.79832 19.7121 10.4996 18.7403C11.4474 17.4218 12.0947 15.8188 11.7059 14.1957C11.5817 13.6727 11.2751 12.9293 11.201 12.3482C10.7601 8.88367 15.0743 7.53111 16.9779 10.1841C18.0158 11.6288 17.7674 13.5625 16.2765 14.6065C15.7035 15.0072 14.8539 15.1655 14.2728 15.408C12.7779 16.0312 12.1367 17.2174 11.4695 18.7042C11.209 19.288 11.1515 20.0133 11.2972 20.8803C11.384 21.3973 11.6351 22.1694 12.0506 23.1967C12.4473 24.1772 12.9817 24.9153 13.6536 25.4109Z" fill="#2FFAEC"/>
<path d="M38.5237 16.3719C38.1096 17.0625 37.6588 17.4726 37.1712 17.6022C35.7405 17.9789 34.5522 18.5079 33.7888 19.7002C33.559 20.0608 33.3566 20.4249 33.1816 20.7922C32.7956 21.6084 32.674 22.4988 32.817 23.4633C32.9111 24.0944 33.3039 24.8599 33.4161 25.4169C33.5216 25.9499 33.4836 26.4856 33.3019 27.024C32.853 28.2115 31.9881 28.8888 30.707 29.0558C29.8186 29.172 29.0185 28.9396 28.3064 28.3585C27.3266 27.5991 27.2284 26.5591 26.8597 25.7656C26.1704 24.2808 25.0423 23.6336 23.6016 22.9843C23.8206 22.8147 24.0725 22.6851 24.357 22.5956C25.057 22.9737 25.5112 23.1901 25.7196 23.2448C26.6426 23.488 27.3827 23.522 27.9398 23.347C28.6985 23.1106 29.4546 22.8681 30.208 22.6197C30.8987 22.3926 31.5045 21.9624 32.0255 21.3292C32.4523 20.8143 32.6947 20.155 32.9793 19.5238C33.5029 18.3603 33.4655 17.1527 32.8671 15.901C32.0495 14.1858 33.0354 12.2 34.8528 11.6329C36.7564 11.3417 38.0415 12.0137 38.7081 13.6487C39.0888 14.5785 39.0273 15.4862 38.5237 16.3719Z" fill="#4FFFAA"/>
<path d="M24.356 22.5956C24.0714 22.6851 23.8196 22.8147 23.6005 22.9843C22.7857 22.7466 21.9748 22.6811 21.168 22.788C21.1626 22.788 20.6911 22.9129 19.7533 23.1627C18.3199 23.5434 17.1444 23.1967 16.2266 22.1227C14.7158 20.3514 15.5393 17.6884 17.7856 17.0972C18.8743 16.8114 19.8555 17.0151 20.7291 17.7084C21.1847 18.0704 21.4819 18.4598 21.6208 18.8766C22.1598 20.5077 22.7149 21.8081 24.356 22.5956Z" fill="#3AFED2"/>
<path d="M13.6537 25.411C14.5955 26.0442 15.8098 26.6293 16.9619 26.6433C17.4869 26.65 17.9104 26.5899 18.2323 26.463C18.8174 26.2326 19.4086 25.9621 20.0257 25.952C21.6588 25.924 23.0875 26.9499 23.4201 28.5489C23.6566 29.6951 23.1717 30.7511 22.3401 31.5927C22.1317 31.6849 21.9253 31.7857 21.7209 31.8952C21.4631 32.0328 21.252 32.123 21.0877 32.1658C19.7853 32.5064 18.3866 31.9874 17.6052 30.9094C17.4555 30.7023 17.2839 30.2956 17.0902 29.6891C16.457 27.6953 14.89 26.5752 12.8662 26.0142C12.9851 25.9033 13.1895 25.8545 13.4794 25.8679C13.5488 25.8719 13.5882 25.8392 13.5976 25.7697L13.6537 25.411Z" fill="#3AFED2"/>
<path d="M11.8318 33.6746C10.6897 33.565 10.0164 32.9819 9.81202 31.9253C9.78196 30.3904 11.1265 29.5327 12.5251 30.0557C12.962 30.22 13.2919 30.5139 13.515 30.9374C13.7154 31.3154 13.7708 31.7235 13.6813 32.1617C13.4996 33.0527 12.8832 33.557 11.8318 33.6746Z" fill="#2FFAEC"/>
</svg>
